<svg viewBox="-5 0 1029 1024" xmlns="http://www.w3.org/2000/svg">
  <path d="M 1024 415.18 L 1024 438.54 C 1014.28 615.02 871.76 741.22 713.04 792.82 Q 555.68 843.98 391.42 813.24 Q 390.44 813.06 389.78 813.8 Q 276.5 942.76 106.9 984.94 Q 77.42 992.26 58.52 995.18 Q 56.82 995.44 57.92 994.12 Q 152.68 880.54 187.72 736.56 A 2.84 2.82 -128.76 0 0 186.48 733.5 C 82.96 669.16 6.84 564.32 0 438.78 L 0 414.52 C 4.52 329.06 40.78 252.5 99.28 198.56 C 228.26 56.2 429.28 9.24 609.02 35.62 C 804.76 64.34 1012.3 197.1 1024 415.18 Z M" style="fill: rgba(0, 0, 0, 0); stroke: rgb(0, 0, 0); stroke-width: 10px;"/>
  <circle cx="284.44" cy="426.66" r="56.84" style=""/>
  <circle cx="512" cy="426.66" r="56.84" style=""/>
  <circle cx="739.56" cy="426.66" r="56.84" style=""/>
</svg>