<svg viewBox="0 0 512 512" xmlns="http://www.w3.org/2000/svg">
  <g stroke-width="2.00" fill="none" stroke-linecap="butt">
    <path stroke="#74a2c6" vector-effect="non-scaling-stroke" d=" M 170.64 213.33 A 28.42 28.42 0.0 0 0 142.22 184.91 A 28.42 28.42 0.0 0 0 113.80 213.33 A 28.42 28.42 0.0 0 0 142.22 241.75 A 28.42 28.42 0.0 0 0 170.64 213.33"/>
    <path stroke="#74a2c6" vector-effect="non-scaling-stroke" d=" M 284.42 213.33 A 28.42 28.42 0.0 0 0 256.00 184.91 A 28.42 28.42 0.0 0 0 227.58 213.33 A 28.42 28.42 0.0 0 0 256.00 241.75 A 28.42 28.42 0.0 0 0 284.42 213.33"/>
    <path stroke="#74a2c6" vector-effect="non-scaling-stroke" d=" M 398.20 213.33 A 28.42 28.42 0.0 0 0 369.78 184.91 A 28.42 28.42 0.0 0 0 341.36 213.33 A 28.42 28.42 0.0 0 0 369.78 241.75 A 28.42 28.42 0.0 0 0 398.20 213.33"/>
  </g>
  <path d=" M 512.00 207.59 L 512.00 219.27 C 507.14 307.51 435.88 370.61 356.52 396.41 Q 277.84 421.99 195.71 406.62 Q 195.22 406.53 194.89 406.90 Q 138.25 471.38 53.45 492.47 Q 38.71 496.13 29.26 497.59 Q 28.41 497.72 28.96 497.06 Q 76.34 440.27 93.86 368.28 A 1.42 1.41 -67.2 0 0 93.24 366.75 C 41.48 334.58 3.42 282.16 0.00 219.39 L 0.00 207.26 C 2.26 164.53 20.39 126.25 49.64 95.62 C 114.13 28.10 214.64 4.62 304.51 17.81 C 402.38 32.17 506.15 98.55 512.00 207.59 Z M 170.64 213.33 A 28.42 28.42 0.0 0 0 142.22 184.91 A 28.42 28.42 0.0 0 0 113.80 213.33 A 28.42 28.42 0.0 0 0 142.22 241.75 A 28.42 28.42 0.0 0 0 170.64 213.33 Z M 284.42 213.33 A 28.42 28.42 0.0 0 0 256.00 184.91 A 28.42 28.42 0.0 0 0 227.58 213.33 A 28.42 28.42 0.0 0 0 256.00 241.75 A 28.42 28.42 0.0 0 0 284.42 213.33 Z M 398.20 213.33 A 28.42 28.42 0.0 0 0 369.78 184.91 A 28.42 28.42 0.0 0 0 341.36 213.33 A 28.42 28.42 0.0 0 0 369.78 241.75 A 28.42 28.42 0.0 0 0 398.20 213.33 Z" style="fill: rgba(0, 0, 0, 0); stroke: rgb(0, 0, 0); stroke-width: 5px;"/>
  <circle cx="142.22" cy="213.33" r="28.42" style=""/>
  <circle cx="256.00" cy="213.33" r="28.42" style=""/>
  <circle cx="369.78" cy="213.33" r="28.42" style=""/>
</svg>